<svg xmlns="http://www.w3.org/2000/svg" fill="none" viewBox="0 0 348 348"><path stroke="#000" stroke-width="2" d="M5 5.8h337v337.7H5z"/><path stroke="#000" stroke-width="2" d="M285.4 44.8c0-8.9 7.3-16 16.4-16 4.4 0 8.6 1.6 11.7 4.6a15.9 15.9 0 0 1 4.8 11.4c0 8.9-7.4 16-16.5 16-9 0-16.4-7.1-16.4-16z"/><path stroke="#000" stroke-linecap="round" stroke-width="2.3" d="M11.9 133.3h326.2v79.4H11.9z"/><path stroke="#000" stroke-linecap="round" stroke-width="2.7" d="M14.8 16.3H272v57.3H14.8z"/><path stroke="#000" stroke-linecap="round" stroke-width="3" d="M14.2 275.8h321.6v57H14.2z"/><path stroke="#000" stroke-linecap="round" stroke-width="2.7" d="M148 284.8h54v39h-54zm60 0h54v39h-54zm60 0h54v39h-54zm-180 0h54v39H88zm-60 0h54v39H28z"/><circle cx="54.5" cy="173" r="34.5" stroke="#000" stroke-linecap="round" stroke-width="2.7"/><circle cx="134.5" cy="173" r="34.5" stroke="#000" stroke-linecap="round" stroke-width="2.7"/><circle cx="214.5" cy="173" r="34.5" stroke="#000" stroke-linecap="round" stroke-width="2.7"/><circle cx="294.5" cy="173" r="34.5" stroke="#000" stroke-linecap="round" stroke-width="2.7"/></svg>