<svg xmlns="http://www.w3.org/2000/svg" xml:space="preserve" fill="none" stroke="#000" stroke-width="2" viewBox="0 0 347 347"><path fill="#fff" d="M5 5h337v337H5z"/><path fill="#000" stroke-linecap="square" stroke-miterlimit="1.5" stroke-width="2.2" d="M27 27h293v293H27z" paint-order="stroke fill markers"/><path fill="#cbcbcb" stroke="#565656" stroke-linecap="square" stroke-miterlimit="1.5" stroke-width="7" d="M94 282h18v18H94zm47 0h18v18h-18zm94-235h18v18h-18zm47 0h18v18h-18zM47 94h18v18H47zm47 0h18v18H94zm47 0h18v18h-18zm47 0h18v18h-18zm47 0h18v18h-18zm47 0h18v18h-18zM47 141h18v18H47zm47 0h18v18H94zm47 0h18v18h-18zm47 0h18v18h-18zm47 0h18v18h-18zm47 0h18v18h-18zm-94-94h18v18h-18zM47 188h18v18H47zm47 0h18v18H94zm47 0h18v18h-18zm47 0h18v18h-18zm47 0h18v18h-18zm47 0h18v18h-18zM47 235h18v18H47zm47 0h18v18H94zm47 0h18v18h-18zm47 0h18v18h-18zm47 0h18v18h-18zm47 0h18v18h-18zM47 282h18v18H47zm141 0h18v18h-18zM141 47h18v18h-18zm-94 0h18v18H47zm47 0h18v18H94zm141 235h18v18h-18zm47 0h18v18h-18z" paint-order="stroke fill markers"/></svg>