<svg xmlns="http://www.w3.org/2000/svg" fill="none" viewBox="0 0 348 348"><g stroke="#000" stroke-linejoin="round" stroke-width="2"><path d="M5 5h338v338H5zM18 13h312v322H18z"/><path stroke-linecap="round" d="M25 17h298v143H25zM33 25h282v127H33z"/><g><circle cx="53" cy="43" r="22"/><circle cx="53" cy="43" r="4"/><circle cx="53" cy="29" r="4"/><circle cx="66.3" cy="38.7" r="4"/><circle cx="61.2" cy="54.3" r="4"/><circle cx="44.8" cy="54.3" r="4"/><circle cx="39.7" cy="38.7" r="4"/><circle cx="295" cy="43" r="22"/><circle cx="295" cy="43" r="4"/><circle cx="295" cy="29" r="4"/><circle cx="308.3" cy="38.7" r="4"/><circle cx="303.2" cy="54.3" r="4"/><circle cx="286.8" cy="54.3" r="4"/><circle cx="281.7" cy="38.7" r="4"/></g><path d="M29 166h140v51H29zm150 0h140v51H179zM29 223h140v51H29zm150 0h140v51H179zM29 280h140v27H29zm150 0h140v27H179zM29 313h140v27H29zm150 0h140v27H179z"/><path stroke-linecap="round" d="m61 293 12-7v14zm226 0-12-7v14zm-218 34c0-5 3-9 8-9 4 0 7 3 7 7v7m0 0-5-5m5 5 5-5"/><path d="M9 22h9v10H9zm0 20h9v10H9zm0 20h9v10H9zm0 20h9v10H9zm0 20h9v10H9zm0 20h9v10H9zm0 20h9v10H9zm0 20h9v10H9zm0 20h9v10H9zm0 20h9v10H9zm0 20h9v10H9zm0 20h9v10H9zm0 20h9v10H9zm0 20h9v10H9zm0 20h9v10H9zm321-280h9v10h-9zm0 20h9v10h-9zm0 20h9v10h-9zm0 20h9v10h-9zm0 20h9v10h-9zm0 20h9v10h-9zm0 20h9v10h-9zm0 20h9v10h-9zm0 20h9v10h-9zm0 20h9v10h-9zm0 20h9v10h-9zm0 20h9v10h-9zm0 20h9v10h-9zm0 20h9v10h-9zm0 20h9v10h-9z"/></g></svg>
