<svg xmlns="http://www.w3.org/2000/svg" fill="none" viewBox="0 0 348 348"><path fill="#fff" stroke="#000" stroke-width="2" d="M5.08 5.78h336.91v337.67H5.08z"/><path stroke="#000" stroke-width="2" d="M282.73 40.55c0-8.37 6.97-15.16 15.56-15.16 4.13 0 8.09 1.6 11 4.44a14.96 14.96 0 0 1 4.56 10.72c0 8.38-6.96 15.17-15.56 15.17-8.59 0-15.56-6.8-15.56-15.17z"/><path fill="#000" d="M50 50h200v100H50z"/><path stroke="#000" stroke-miterlimit="10" stroke-width="2.6" d="M40 180h130v130H40zm140 0h130v130H180z"/><path fill="#000" d="M80.43 227.23c-.22-.56-1.18-1.18-1.86-1.18h-1.8c-1.57 0-2.47 1.4-1.85 2.82 2.42 5.63 4.9 11.2 7.31 16.83v16.28a2 2 0 0 0 1.98 2.02h1.57a2.02 2.02 0 0 0 2.03-2.02v-16.22l7.26-16.9c.57-1.4-.33-2.8-1.85-2.8h-1.86c-.62 0-1.58.61-1.86 1.17L85 237.6zm20.16-1.18a2.02 2.02 0 0 0-2.02 2.03v33.9c0 1.12.9 2.02 2.02 2.02h12.17a2.02 2.02 0 0 0 2.02-2.02v-1.52a2.02 2.02 0 0 0-2.02-2.03h-8.62V247.8h7.1a2.02 2.02 0 0 0 2.02-2.03v-1.52a2.02 2.02 0 0 0-2.02-2.03h-7.1v-10.58h8.62a2.02 2.02 0 0 0 2.02-2.03v-1.52a2.02 2.02 0 0 0-2.02-2.03zm16.1 26.92c0 7.37 3.1 10.98 9.3 10.98 5.97 0 9.3-3.38 9.3-9.69 0-5.46-3.78-8.33-7.5-11.2h.06c-2.76-2.14-5.52-4.34-5.52-7.21 0-2.93 1.3-4.22 3.66-4.22 2.48 0 3.66 1.69 3.66 5.4v.79c0 1.13.9 2.03 2.03 2.03h1.57a2.02 2.02 0 0 0 2.03-2.03v-.79c0-7.15-3.2-11.03-9.29-11.03-5.97 0-9.3 3.66-9.3 10.02 0 5.57 3.9 8.61 7.61 11.54v-.05c2.76 2.14 5.35 4.22 5.35 6.87 0 2.98-1.3 4-3.66 4-.79 0-1.75-.12-2.37-.74-.78-.67-1.29-1.97-1.29-4.67v-.73c0-1.13-.96-2.03-2.03-2.03h-1.57a2.02 2.02 0 0 0-2.03 2.03zm124.17 11.01a2.02 2.02 0 0 0 2.03-2.03v-33.9a2.02 2.02 0 0 0-2.03-2.03h-1.58a2.02 2.02 0 0 0-2.02 2.03v18.58l-7.83-19.37c-.23-.62-1.13-1.24-1.86-1.24h-1.35c-1.07 0-2.03.9-2.03 2.03v33.9c0 1.13.96 2.03 2.03 2.03h1.63c1.07 0 2.03-.9 2.03-2.03v-18.58l7.83 19.37c.22.62 1.18 1.24 1.86 1.24zm6.48-11.04c0 4.45 1.24 7.04 2.98 8.79 1.86 1.8 4.23 2.25 6.25 2.25 2.09 0 4.45-.45 6.3-2.25 1.76-1.75 2.94-4.34 2.94-8.79V237c0-7.15-3.04-10.98-9.24-10.98-6.14 0-9.23 3.89-9.23 10.98zm5.63-15.94c0-3.66 1.12-5.4 3.6-5.4 2.42 0 3.6 1.63 3.6 5.4v15.94c0 3.83-1.23 5.46-3.6 5.46-2.42 0-3.6-1.74-3.6-5.46z"/><path fill="#0f0" stroke-width="3.81" d="M110.79 80.39a2.38 2.38 0 0 0-2.24-1.85h-1.4c-1.02 0-2.04.83-2.23 1.85l-3.32 19.39-2.93-19.33a2.38 2.38 0 0 0-2.3-1.91h-1.85c-1.46 0-2.42 1.2-2.23 2.61l6.25 38.46a2.38 2.38 0 0 0 2.23 1.92h1.4c1.03 0 2.05-.83 2.24-1.85l3.44-20.35 3.38 20.35a2.38 2.38 0 0 0 2.24 1.85h1.46c1.09 0 2.1-.9 2.3-1.92l6.12-38.46a2.3 2.3 0 0 0-2.3-2.61h-1.84c-1.09 0-2.17.83-2.3 1.91l-2.87 19.2zm23.85 16.51V80.84a2.3 2.3 0 0 0-2.3-2.3h-1.78a2.29 2.29 0 0 0-2.3 2.3v38.4c0 1.28 1.02 2.3 2.3 2.3h1.78c1.28 0 2.3-1.02 2.3-2.3v-16h7.08v16c0 1.28 1.02 2.3 2.3 2.3h1.78c1.28 0 2.3-1.02 2.3-2.3v-38.4a2.3 2.3 0 0 0-2.3-2.3h-1.78a2.29 2.29 0 0 0-2.3 2.3v16.08zm24.88-16.07c0-1.27-1.09-2.3-2.3-2.3h-1.79a2.29 2.29 0 0 0-2.3 2.3v38.4a2.3 2.3 0 0 0 2.3 2.3h1.79c1.21 0 2.3-1.02 2.3-2.3zm4.08 1.73a2.3 2.3 0 0 0 2.3 2.3h5.16v34.3c0 1.28 1.02 2.3 2.3 2.3h1.72a2.3 2.3 0 0 0 2.3-2.3v-34.3h5.22a2.3 2.3 0 0 0 2.3-2.3v-1.79c0-1.28-1.02-2.3-2.3-2.3h-16.7a2.29 2.29 0 0 0-2.3 2.3zm28.06-4.02a2.29 2.29 0 0 0-2.3 2.3v38.39a2.3 2.3 0 0 0 2.3 2.3h13.78a2.3 2.3 0 0 0 2.3-2.3v-1.72a2.3 2.3 0 0 0-2.3-2.3h-9.76v-12.05h8.04a2.3 2.3 0 0 0 2.3-2.3v-1.72a2.3 2.3 0 0 0-2.3-2.3h-8.04V84.85h9.76a2.3 2.3 0 0 0 2.3-2.3v-1.72a2.3 2.3 0 0 0-2.3-2.3z" aria-label="WHITE"/></svg>