<svg width="282.25" height="247.85" viewBox="0 0 74.68 65.58" xmlns="http://www.w3.org/2000/svg"><g fill="#f9f9f9" stroke-width="2" fill-rule="evenodd"><path d="m22.76-548.77 1.76.67z" fill="#353564"/><path d="m22.76-548.77 1.76.67z" fill="#afafde"/><path d="M22.76-548.77z" fill="#8686bf"/><path d="m22.76-548.77 1.76.67z" fill="#4d4d9f"/><path d="M24.52-548.1z" fill="#e9e9ff"/><path d="m22.76-548.77 1.76.67z" fill="#d7d7ff"/></g><path fill="#f9f9f9" stroke="#000" stroke-width=".93" d="M.47 9.48h47.19v50.3H.46z"/><path d="M.47 9.52 22.77.5h-.23zm47.2-.04L69.97.45h-.23zm0 50.3 22.3-9.02h-.23zM69.97.46v50.3zM22.53.49 69.75.45z" fill="none" stroke="#000" stroke-width=".9"/><path d="M18.79 62.53v.1l-.02.1-.02.06-.05.05-.05.05-.05.01q-.04 0-.05-.03l-.02-.07-.01-.07q-.01-.04-.06-.04h-.02l-.02.01-.01-.03-.02-.08-.02-.1-.02-.08-.05-.1-.02-.12.01-.08.04-.06.03-.06q.02-.02.02-.06 0-.06-.04-.1-.03-.04-.08-.07l-.11-.03-.1-.02-.14.02-.14.04-.13.06-.13.04.02.08v.28l-.02.18.01.2.03.2.02.2.01.2q0 .12-.04.24v.1l.04.06.03.06.01.07v.07l-.02.06.01.08.01.09-.01.03h-.06v.02l.01.08.02.08-.02.07-.01.06q0 .04.03.07.03.02.04.06.02.05.02.11l.04.12q.03.05.09.1.06.03.17.03h.16l.1.02.07.05q.03.03.03.07 0 .05-.02.09l-.01.08v.04q-.04 0-.07.02-.03.02-.04.06l-.1-.01h-.11l-.27.01-.27.05-.27.04-.26.02h-.12l-.12-.02-.1-.05q-.05-.04-.05-.1l.01-.12.04-.05.05-.02h.05l.01-.03-.01-.02-.02-.01q.04-.05.1-.06.05-.02.11-.02l.12-.02.12-.02.04-.05.05-.09.03-.09.01-.07-.03-.27-.01-.26v-.03l.03-.06q0-.03.03-.07l-.04-.06-.02-.06-.01-.04v-.06l.02-.06.02-.24v-.1l-.03-.09q-.03-.17-.03-.35 0-.2.03-.41l.02-.42q0-.07-.02-.11-.02-.04-.1-.07l-.19-.04-.2-.02-.15.02q-.08.02-.15.06-.06.04-.1.1-.05.07-.05.16v.1l.01.08q0 .05-.02.08l-.01.06.02.08.02.08-.02.06-.02.07-.03.06-.02.06-.04.08q-.02.03-.06.03-.04 0-.07-.03-.04-.03-.04-.07 0-.03.02-.04l.01-.05v-.05l-.03-.06-.03-.06v-.14q.02-.03.02-.07 0-.08-.03-.16-.02-.08-.02-.17l.01-.17.05-.2q.05-.1.1-.16.07-.06.16-.06l.13.01.14.02q.08 0 .15-.02l.16-.01.1.02.1.01.05-.01q.02-.02.05-.02l.06.02.07.01h.05l.05-.01h.08l.07.02.32-.04.15-.01h.14l.25.01.26.05q.09.03.12.1.04.07.05.17l.01.18v.17l.02.21q.02.1.02.21zm3.2 2.4-.02.1-.03.08-.01.06-.01.05-.03.03-.06.03-.17.1q-.08.04-.17.04-.08 0-.15-.04l-.12-.08-.1-.09q-.05-.03-.08-.03-.04 0-.06.02l-.05.04-.06.04q-.03.02-.07.02l-.08.01-.08.03-.08.04-.08.03-.24.04h-.34l-.13-.01q-.07-.01-.12-.04-.05-.03-.05-.08v-.02l-.04.04-.05.01q-.04 0-.1-.06-.07-.06-.12-.14l-.1-.16q-.04-.08-.04-.12 0-.03.02-.05l.02-.06-.01-.07-.01-.08.02-.1.04-.11.06-.11.05-.1q.03-.06.08-.1l.1-.05.1-.05.1-.07q.03.05.1.05l.13-.02q.06-.02.13-.02h.1l.1.02q.06 0 .09-.02l.07-.05q.04-.04.1-.06l.14-.03.14-.03q.07-.01.12-.04l.1-.07q.03-.05.03-.13 0-.09-.05-.18-.05-.1-.13-.18-.07-.09-.17-.14-.09-.05-.17-.05h-.04l-.14.02q-.08 0-.15.03-.07.02-.12.07-.05.04-.05.14l.01.1.01.12q0 .08-.04.13-.04.06-.1.1l-.13.04-.13.01q-.08 0-.14-.02-.06-.02-.1-.1l-.06-.13q-.03-.07-.03-.14l.02-.14.06-.12.06-.13.05-.13.05-.02.07-.03.07-.02q.04 0 .06-.02.07-.01.12-.04l.13-.05.12-.04.13-.02h.08l.24.02q.12.02.23.07.11.04.21.1.1.07.19.16.05.06.1.16l.05.18q.03.1.03.2l.01.2v.67l.03.22.03.22.01.21q0 .07.02.08l.02.02q.06 0 .1-.04l.06-.08.06-.09q.04-.04.1-.04h.04l.05.02.03.03q.02.01.02.05zm-.87-.68v-.06l-.01-.08q0-.05-.02-.08-.01-.03-.04-.03h-.02l-.17.1-.15.06-.15.03-.2.01-.08.01-.16.04-.16.03-.09.03q-.03 0-.05.02l-.02.03-.02.04q0 .02-.03.04l-.05.03-.06.04q-.04.04-.07.11-.04.07-.04.13 0 .08.04.13.04.06.1.1l.14.08q.07.03.15.04l.15.03h.28l.17-.03.17-.06q.07-.04.12-.1.02-.01.02-.03l.02-.04.02-.04.04-.04q.06-.05.1-.11l.04-.14.02-.14v-.15zm3.75-.25q0 .05-.02.08-.02.04-.07.04.01.05.05.1.03.05.03.1l-.02.08q0 .04-.02.07l-.03.08q-.02.03-.02.07l-.07.16-.1.2-.11.2q-.06.1-.1.13l-.06.04-.06.02-.07.01q-.04 0-.07.02l-.12.07q-.05.04-.13.04-.03 0-.05-.02-.02 0-.05-.03l-.04-.03-.05-.01-.1.04-.1.02h-.11l-.1.01q-.13 0-.22-.06t-.17-.17l-.04.02-.04.03-.04.03-.03.01v-.03l-.02-.02-.04.02q-.02 0-.03.03l-.03.03q-.02.02-.05.02l-.05-.01q-.03-.01-.03-.05l.01-.05.02-.06-.01-.07-.01-.06v-.07l.01-.07-.01-.08-.02-.08-.03-.08-.01-.1.02-.1q.03-.05.03-.11v-.03l-.02-.02-.01-.03v-.16l-.01-.09v-.22q.03-.08.03-.15l-.02-.2-.01-.19v-.07l.03-.07.02-.07v-.22l-.02-.15-.02-.14-.01-.15v-.18q0-.13-.04-.2-.05-.06-.11-.09-.07-.03-.14-.03l-.14-.02q-.06-.01-.1-.05-.05-.03-.05-.12 0-.07.04-.12.04-.04.1-.06.04-.03.1-.03l.12-.01.28.02q.13.03.27.03.03.01.04.04v.13q-.02.04-.02.09v.57l.01.17.03.16.03.11q.03.05.06.05l.05-.01.04-.04.04-.03.04-.04.13-.03.13-.02.05-.01.04-.03.05-.03.06-.01.07.01.07.03.07.03.08.02.1.01q.06 0 .1.03.04.01.05.03l.04.04.05.02h.06l.05.02q.03 0 .07.04l.07.07q.05.03.08.07l.07.08.04.1q.01.1.05.23t.1.21l.06.14q.03.08.03.16zm-.27.11q0-.03-.03-.05l-.05-.03-.05-.03v-.04q0-.03.02-.03h.02q0-.06-.04-.13t-.06-.12l-.02-.07q0-.04-.02-.07 0-.03-.03-.06l-.06-.05-.05-.03-.04-.02-.02-.04-.03-.06-.04-.06q-.02-.02-.05-.02l-.06-.02-.07-.02-.16-.05q-.08-.03-.18-.03-.18 0-.3.06t-.2.16q-.08.1-.13.25-.04.14-.05.3l-.02.14-.03.13-.03.13-.01.14v.04l.02.03q.05.06.05.12l.02.12.02.1q.02.04.08.07l.06.03.04.03.02.04q.01.03.04.05l.1-.02q.07 0 .12-.02 0 .04.03.06l.08.04.1.01h.16l.1-.02.08-.04q.05-.02.07-.07.04-.07.1-.1l.1-.06q.06-.02.1-.06.05-.04.07-.12l.06-.2q.04-.1.04-.2l-.01-.07q0-.04-.02-.07l.06.04.07.02h.02l.01-.03zm3.4 1.17q0 .1-.06.15-.06.06-.15.08l-.18.04-.16.01q-.09 0-.15-.02l-.1-.03-.07-.04-.06-.01-.1.01-.08.02h-.05l-.04-.04-.02-.02-.03-.01-.03.01-.02.04-.04.03q-.03.02-.07.02-.06 0-.11-.02h-.11l-.11.01-.1.02-.04-.01q0-.02-.02-.02l-.1.02q-.04.03-.1.03l-.05-.01h-.05l-.09.01-.1.03-.11-.01-.17-.02q-.08-.01-.15-.04-.07-.02-.07-.04 0-.07.03-.14l.02-.14q-.03 0-.04-.05l.02-.01.03-.01.02-.02.01-.02v-.01l.2.01h.45q.13-.01.23-.04.11-.04.18-.1.08-.07.08-.2v-.06l-.03-.6-.02-.6v-.15l-.02-.15q0-.1.03-.2.04-.1.1-.16v-.02l-.03-.01-.03-.01h-.03l-.02-.05v-.06l-.02-.07-.01-.06.02-.16q.02-.07.02-.15l-.01-.1-.04-.05-.03-.04-.01-.05.01-.04h-.02l-.04.01-.03.03q0 .02-.02.03-.01.02-.04.02l-.04-.01-.09.01-.18-.02q-.09-.03-.18-.03h-.33q-.07-.02-.13-.08v-.03q0-.15.1-.22.1-.08.23-.08.09 0 .18.03t.18.02h.1l.12-.03.12-.03.12-.01q.09 0 .17.04l.16.08v.07l.03.04.03.04.01.04v.05l-.01.05.02.12q.03.05.03.11 0 .07-.02.13l-.01.13.01.16.02.16q0 .07-.02.13l-.02.13.01.1.03.08.03.1.01.09v.14l-.04.08.03.1.01.13v.05q0 .04-.02.07l-.02.06-.04.04q.04.1.05.21l.01.22.01.08.02.1.01.1.01.06-.01.1-.02.08.02.08q.01.04.05.04t.06-.02l.05-.03.06-.03q.04-.02.1-.02.07 0 .13.02t.13.02h.1l.1-.03.1-.02.1-.02q.1 0 .18.07.07.06.07.19zm-1.52-3.45-.02-.02h-.06v.06h.06l.02-.04zm.16.77-.01-.04q-.01-.03-.04-.03h-.02l-.01.01v.12l.03.01q.03 0 .04-.02l.01-.05zm4.1 2.24q0 .08-.03.13l-.06.1-.08.07-.1.08-.06.05-.05.02-.06.03q-.03 0-.07.03l-.1.05-.06.04-.08.03q-.04.02-.1.02l-.22.04q-.1.02-.21.02l-.05-.01-.05-.02-.06-.02-.09-.01q-.05 0-.08-.02-.04-.01-.06-.04l-.05-.04-.07-.05q-.16-.07-.27-.18-.11-.1-.2-.23t-.12-.29q-.06-.15-.1-.31l-.02-.24q0-.15.07-.28-.03-.08-.03-.15l.03-.15.07-.21.1-.2q.06-.08.1-.1l.06-.02.01-.05q0-.04.03-.06l.06-.04.07-.02.06-.02.18-.09.18-.05.19-.04.2-.01.12.02.1.04.1.06.1.06q.04 0 .07.02l.08.03.1.09.11.09q.06.04.1.1.04.05.04.12v.05-.02l.03.03.01.05.02.04v.04l.06.06q.04.02.06.06-.03.02-.03.07l.02.1.02.08v.11l-.01.1q0 .05-.03.07l-.07.04-.06.03q-.03.02-.03.05 0 .02-.03.02h-.04q-.11 0-.23-.03-.11-.03-.23-.03l-.24.02-.25.01h-.46q-.07 0-.14.03-.07.01-.13.04-.07.01-.1.03v.04q0 .13.07.27.08.14.2.25.11.12.26.19.15.08.3.08h.17q.09 0 .17.04.07-.03.13-.08l.12-.1.1-.1.12-.12.05-.02.09-.01.09-.02h.06q.06 0 .11.02l.02.12zm-.4-1.12-.01-.08-.02-.08-.02-.15-.02-.15-.01.03q-.01.02-.03.02l-.06-.02-.05-.04-.19-.09-.16-.07-.17-.05q-.09-.02-.2-.02h-.03l-.02.01.02.03h-.02l-.12.03-.09.04-.07.05-.09.08-.06.04-.06.02-.06.02-.04.04-.06.14q-.03.06-.03.13 0 .04.03.08l.08.05.12.04.12.02.11.02h.09l.2-.02.2-.02h.2l.2.02h.09l.1-.02q.05-.01.09-.04.04-.02.04-.06zm5.32 1.49v.06l-.03.05-.05.09q-.02.03-.05.04-.02.02-.05.02h-.16l-.03.01q-.03 0-.04-.02v-.13q-.01-.02-.04-.02-.04 0-.06.03l-.04.05-.04.05q-.03.02-.07.02l-.1-.01-.11-.03h-.22l-.22-.01-.21-.02q-.1 0-.21-.03l-.05-.01h-.04l-.22.02q-.1.02-.23.02l-.18.02q-.08.02-.17.02l-.1-.02-.1-.05-.1-.07q-.03-.04-.03-.1 0-.03.03-.07l.08-.08.1-.07.07-.05.32.05q.16.03.32.03.1 0 .16-.03.06-.02.1-.07l.03-.1.01-.14v-.18l.02-.85q.03-.43.03-.86l-.01-.42-.04-.42-.07-.02h-.09q-.01-.02-.03-.02h-.03q-.06 0-.11.02l-.12.02h-.02l-.02-.02-.02-.02h-.03l-.18.02q-.08.02-.17.02-.07 0-.13-.02t-.11-.06q.02-.04.02-.1l-.01-.09-.01-.09.04.01q.04 0 .07-.02l.07-.04.08-.05q.03-.02.07-.02l.16.02q.08.03.16.03.04 0 .07-.02l.06-.02.04.02.04.01.09-.01.09-.04.08-.03.1-.02.13.02.13.01h.06v.11l.04.06.02.08q.02.05.02.12v.62l-.04.1q.03.03.03.06v.11l.01.06.04.06v.03l-.01.06-.03.05-.02.05-.01.06.01.13q.02.06.02.13l-.01.18-.02.17-.03.18V64l-.02.04-.01.01h-.02v.14l.03.14.02.14.01.15v.08q0 .15.1.21.09.07.22.07l.14-.01.06-.04.04-.04.04-.02.16.02.16.02h.08q.04 0 .07.02.04 0 .07.02.03.01.06.06l.06.09q.03.05.03.1z" style="-inkscape-font-specification:'Special Elite'" aria-label="Table 1" fill="#777"/><path d="M57.97 58.7v.1l-.01.1-.02.05-.05.05-.05.05-.06.01q-.04 0-.05-.03l-.01-.07q0-.04-.02-.07 0-.04-.05-.04h-.02l-.03.01v-.03l-.02-.08-.02-.1-.02-.08-.05-.1q-.03-.06-.03-.13 0-.04.02-.07l.03-.06.04-.06.01-.06q0-.06-.03-.1-.03-.04-.09-.07l-.1-.04h-.1l-.14.01-.14.04-.13.05-.13.05.01.08v.66l.02.2.03.2v.2q0 .12-.03.24l-.01.04.01.06.03.06.03.06q.02.03.02.07l-.01.06-.01.06v.1q.02.03.02.08l-.01.03h-.06v.1q.03.04.03.08l-.02.07-.01.06q0 .04.03.07.03.02.04.06l.02.11.04.12q.03.05.09.09.05.04.17.04h.15l.1.02.07.05q.03.03.03.07t-.02.09-.01.08v.04q-.04 0-.07.02-.03.02-.04.06l-.11-.01h-.1l-.27.01-.27.05-.27.04q-.13.02-.27.02h-.1l-.14-.02q-.07-.02-.1-.05-.04-.04-.04-.1l.01-.12.04-.05.04-.02h.06v-.05q-.02 0-.03-.02.05-.04.1-.05l.12-.03h.12l.11-.03.05-.05.04-.09.03-.09.02-.07-.03-.27-.01-.26v-.03l.02-.06.03-.07-.03-.06-.03-.06v-.1l.02-.06.01-.24v-.1l-.02-.09q-.03-.17-.03-.35l.02-.42q.03-.2.03-.41 0-.07-.02-.11-.03-.04-.1-.07l-.19-.04-.2-.02-.15.02q-.08.02-.15.06-.07.04-.11.1-.04.07-.04.16v.18l-.01.08-.02.06.02.08q.03.03.03.08l-.02.06-.02.07-.04.06-.02.06-.03.07q-.02.03-.07.03l-.07-.02q-.03-.03-.03-.07l.01-.04q.02-.02.02-.05l-.01-.05-.03-.06-.02-.06-.01-.06v-.08q.02-.03.02-.07l-.02-.17q-.03-.08-.03-.16l.02-.17q.01-.1.05-.2t.1-.16q.06-.06.16-.06l.13.01.13.01h.16l.15-.02.1.02.1.01.05-.01.06-.02.06.02.06.01h.05l.06-.01h.07l.08.02.32-.04.14-.01h.15l.25.01.25.05q.1.03.13.1.04.07.05.17v.18l.01.17.02.21.01.21zm3.2 2.4-.01.08-.03.09-.02.06v.05l-.04.03q-.01.02-.05.03l-.17.1q-.09.04-.18.04-.07 0-.14-.04-.07-.03-.13-.08l-.1-.09q-.04-.03-.08-.03l-.06.02-.05.04-.05.04q-.03.02-.08.02l-.07.01-.08.04-.08.03-.08.03-.24.04h-.33l-.13-.01q-.07-.01-.12-.04-.05-.03-.05-.08v-.02l-.04.04-.05.01q-.05 0-.1-.06-.07-.06-.12-.14l-.1-.16q-.04-.08-.04-.12 0-.03.02-.05l.01-.06v-.07l-.01-.07.01-.11.05-.11.06-.11.05-.1q.02-.06.07-.1l.1-.05.1-.05.1-.07q.04.05.1.05.07 0 .13-.02l.13-.02h.1l.1.02.1-.01.06-.06.1-.06.14-.03.14-.03q.08-.01.13-.04l.1-.07q.03-.05.03-.13 0-.09-.05-.18-.05-.1-.13-.18-.07-.08-.17-.14-.1-.05-.17-.05h-.04q-.07.02-.15.02-.08 0-.15.03-.06.02-.11.07-.05.04-.05.14v.1l.02.12q0 .08-.04.13-.04.06-.1.1-.06.03-.13.04h-.14l-.13-.01q-.06-.02-.1-.1l-.06-.13q-.03-.07-.03-.14t.02-.13l.06-.13.06-.13q.03-.06.04-.13l.05-.02.08-.03.07-.02q.04 0 .06-.02l.12-.04.12-.05.13-.04.13-.02h.08l.23.02q.12.02.24.07l.21.1q.1.07.18.16.06.06.1.16.04.08.06.18l.03.2.01.2v.22l-.01.23v.22l.04.22.02.22q.02.1.02.21l.01.08.03.02q.06 0 .1-.04l.06-.08.06-.09q.04-.04.09-.04h.05l.04.02q.03 0 .04.03l.01.05zm-.87-.7v-.13l-.02-.08q-.02-.03-.04-.03h-.03l-.17.1-.14.06-.15.03-.2.01-.08.01-.16.04-.16.03-.1.03q-.03 0-.04.02l-.02.03-.02.04q0 .02-.03.04l-.06.03-.05.04-.08.11q-.03.07-.03.13 0 .08.04.13.03.06.1.1.05.04.13.07l.16.05.15.03h.27l.18-.03.16-.06q.08-.04.12-.1l.03-.03.02-.04.02-.04.04-.04q.06-.05.09-.11l.05-.14.02-.14v-.15zm3.76-.24q0 .05-.02.08-.02.04-.08.04l.05.1q.03.05.03.1v.08l-.04.07q0 .04-.03.08t-.02.07l-.06.16-.1.2-.12.2q-.06.1-.1.13-.02.03-.06.04l-.06.02-.07.01-.06.02-.12.07q-.06.04-.13.04-.03 0-.05-.02l-.05-.03-.05-.03-.05-.01-.09.04-.1.02h-.12l-.1.01q-.12 0-.21-.06-.1-.06-.17-.17l-.04.02-.04.03-.04.03-.03.01v-.03l-.02-.02-.05.01-.03.04-.03.03q-.01.02-.04.02l-.06-.01q-.02-.01-.02-.05v-.05l.02-.06v-.07l-.02-.06.01-.07v-.15l-.03-.08-.03-.08v-.1l.02-.1q.02-.05.02-.11v-.03l-.01-.02-.01-.03-.01-.05v-.2l-.01-.08.02-.15.01-.14-.01-.2q-.02-.09-.02-.19l.01-.07.02-.07.02-.07.02-.08-.01-.14-.03-.15-.02-.14v-.33q0-.13-.05-.2-.04-.06-.1-.09-.07-.03-.14-.03-.08 0-.14-.02-.07-.01-.1-.05-.05-.03-.05-.12 0-.07.03-.12.04-.04.1-.06.05-.03.11-.03l.12-.01q.14 0 .27.03l.28.03q.03 0 .04.03v.05l-.01.08-.01.08v.59l.01.16.02.16.04.11q.02.05.05.05l.05-.01.05-.04.04-.03.04-.04.12-.03.14-.02.04-.01.05-.03.05-.03.06-.01.07.01.07.03.07.03.07.02.1.01q.06 0 .11.03l.05.03.03.04.06.02h.05l.06.02q.03 0 .06.04l.08.07.08.07.06.08.04.1.06.23q.03.13.1.22l.06.13q.03.08.03.16zm-.27.11q0-.03-.03-.05l-.06-.03-.04-.03q-.02-.02 0-.04l.01-.03h.03q0-.06-.05-.13-.04-.06-.05-.12l-.02-.07-.02-.07-.03-.06-.06-.05-.06-.03-.03-.02-.03-.04-.02-.05-.04-.07q-.02-.02-.05-.02l-.06-.02q-.04 0-.07-.02l-.17-.05q-.08-.03-.17-.03-.18 0-.3.06-.13.06-.2.16-.09.1-.13.25-.04.14-.05.3l-.02.14-.03.13-.03.13-.02.14v.04l.03.03q.05.06.05.12l.01.12q0 .05.03.1.01.04.08.07l.06.03.03.03.03.04.03.05.12-.02.11-.01q0 .03.03.05l.08.04.1.01h.16l.1-.02.08-.03q.04-.03.07-.08.04-.07.09-.1l.1-.06.1-.06q.06-.04.08-.12l.06-.2q.03-.1.03-.2v-.07l-.02-.07.06.04q.03.03.07.03l.02-.01v-.03zm3.4 1.17q0 .1-.06.15-.07.06-.15.08l-.19.04-.16.01q-.08 0-.14-.02l-.1-.03-.07-.04-.07-.01-.09.01q-.04.02-.09.02h-.05L66 61.6l-.03-.02-.02-.01-.03.01-.03.04-.04.03q-.02.02-.07.02l-.1-.02h-.12l-.1.01-.1.02-.04-.01q0-.02-.02-.02l-.1.02q-.04.03-.1.03l-.05-.01H65l-.09.01q-.04.03-.11.03l-.1-.01q-.09 0-.17-.02-.08-.01-.15-.04-.07-.02-.07-.04l.02-.15q.03-.07.03-.13-.03 0-.04-.05l.02-.01.02-.01.03-.02v-.03h.21l.22.01h.23q.12-.01.23-.05.1-.03.18-.1.07-.06.07-.19v-.06l-.03-.6v-.6q0-.08-.02-.15l-.01-.16q0-.1.03-.19.03-.1.1-.16v-.03h-.04l-.03-.01-.02-.01q-.02 0-.02-.04l-.01-.07-.01-.06q0-.04-.02-.06l.03-.16q.02-.07.02-.15 0-.06-.02-.1l-.03-.05-.03-.04q-.02-.02-.02-.05l.02-.04h-.02l-.04.01-.03.03-.02.03-.04.02-.04-.01-.09.01q-.1 0-.18-.02-.1-.03-.19-.03h-.33q-.07-.02-.12-.08v-.03q0-.15.1-.22.09-.08.22-.08.1 0 .19.03t.18.02h.1l.12-.04q.06 0 .11-.02l.12-.01q.1 0 .17.04l.16.07v.03l.01.04.03.05.03.04.01.04v.05l-.01.05q0 .06.02.11l.02.12q0 .07-.02.13v.13l.01.16.02.16q0 .07-.02.13l-.02.13.01.1.03.08.03.1v.23q0 .04-.03.07l.02.12.02.11v.06l-.02.07-.02.06-.04.04q.03.1.04.21l.02.22.01.08.02.1.01.1v.16l-.02.08.01.08q.02.04.06.04.03 0 .05-.02l.05-.03.06-.03q.04-.02.1-.02.07 0 .13.02t.13.02h.1l.1-.03.1-.03h.1q.11 0 .18.06.08.06.08.19zm-1.52-3.45-.03-.02-.03-.01-.02.01-.01.03.01.03h.05l.03-.04zm.16.77-.01-.04q-.02-.03-.04-.03h-.02l-.01.01v.12l.03.01q.02 0 .03-.02l.02-.05zm4.1 2.24q0 .08-.03.13l-.06.1-.08.07-.1.08-.06.05-.06.03-.06.02q-.03 0-.07.03l-.09.05-.07.04-.07.03q-.05.02-.11.02l-.21.04-.22.02-.04-.01-.05-.02-.07-.02-.08-.01q-.05 0-.09-.02l-.05-.04-.05-.04-.07-.05q-.16-.07-.27-.18-.11-.1-.2-.24t-.13-.28l-.09-.32q-.03-.11-.03-.23 0-.15.07-.28l-.02-.15.03-.15q.02-.1.07-.21l.1-.2q.06-.08.1-.1l.05-.02q.02-.01.02-.05t.02-.06l.06-.04.08-.02.06-.02.18-.09.18-.05.18-.04.2-.01q.07 0 .12.02.06.01.1.04l.11.06.1.06q.04 0 .07.02l.08.03.1.09.1.09q.07.04.1.1.05.05.05.12v.05-.02q.02.01.02.03l.02.05.02.04v.04l.06.06q.04.02.06.06-.03.02-.03.07l.02.1.02.08v.11l-.01.1q0 .05-.03.07l-.07.04-.06.03q-.03.02-.03.05 0 .02-.03.02h-.04q-.12 0-.23-.03-.12-.03-.23-.03l-.25.02-.24.01h-.47l-.13.03-.14.03-.1.04v.04q0 .13.08.27.07.14.2.25.11.12.26.19.15.07.3.07l.17.01q.09 0 .17.04.07-.03.13-.08l.12-.1.1-.1.11-.12.05-.02.1-.02h.08l.06-.01.12.02.01.12zm-.4-1.12-.02-.08-.02-.08-.01-.15-.02-.15q0 .02-.02.03 0 .02-.03.02l-.06-.02-.05-.04-.18-.09-.16-.07-.17-.05q-.1-.02-.21-.02h-.02l-.02.01.01.03h-.02l-.12.03-.08.04-.07.05-.1.08q-.02.03-.05.04l-.06.02-.06.02q-.03.01-.05.04-.01.07-.05.13-.04.07-.04.14 0 .04.04.07l.08.06.12.04.12.02.11.01h.08l.2-.01.2-.02h.2l.21.02h.08l.1-.02q.06-.01.1-.04.04-.02.04-.06zM74.67 61l-.01.1-.05.1-.03.03-.02.05-.02.05q0 .02-.02.02h-.02l-.02-.01h-.02q-.03.05-.09.1l-.12.06-.14.05-.11.02h-.07l-.05-.03-.02-.02-.03-.01-.06.02-.05.02q-.02 0-.02-.02l-.03-.02-.1-.05-.11-.07-.1-.06q-.06-.03-.1-.03l-.04-.04-.1-.08-.12-.07q-.06-.04-.13-.04t-.12.05q-.04.04-.06.1h-.02q-.04 0-.06.03-.03.02-.05.06-.02.03-.02.07l-.01.07v.1l.01.09v.06h-.2q-.05 0-.08-.02l-.04-.08-.05-.11-.07-.1-.06-.11q-.03-.05-.03-.1v-.15l.01-.14q0-.06.03-.1l.06-.08.06-.1q.03-.06.03-.14l.01-.04.02-.02.07-.1.1-.13.1-.16.12-.14.03-.02h.08l.04-.01.01-.02.02-.03.02-.02q.02-.03.07-.02l.08-.02.05-.03.05-.03.04-.04.06-.02.2-.07.18-.11.17-.14q.07-.08.12-.18l.02-.04.04-.04.03-.05.01-.04v-.03l-.01-.03.01-.03q.02 0 .03-.02.03 0 .04-.03l.03-.05.01-.07.01-.06v-.06l-.02-.06q0-.03-.03-.06-.01-.03-.04-.04h-.02q-.02-.01-.02-.03v-.02l.01-.02-.02-.04-.05-.04-.05-.04q-.03-.02-.04-.05 0-.02-.06-.05l-.1-.06-.12-.05-.08-.02q-.1 0-.18.04l-.18.05-.17.03q-.1 0-.2.04-.1.03-.17.09-.08.05-.08.16 0 .04.03.08l.07.08.08.08.1.08.06.1.02.1q0 .08-.04.13t-.1.08l-.14.05-.12.01q-.07 0-.12-.02h-.06l-.03-.02-.02-.03-.01-.06-.03-.08-.04-.07-.03-.08v-.1l.02-.15.08-.2.1-.17q.04-.09.09-.13l.03-.04.02-.05.03-.04h.1q.04 0 .07-.02.02-.01.03-.05l.04-.04.06-.02h.13l.1-.03.1-.03.1-.02.1-.02h.05l.37.04q.14.03.26.1.1.06.2.18t.2.31l.05.1q.02.06.07.1l-.04.14v.15l-.02.09-.02.07-.03.06-.04.08-.02.05-.01.04-.02.04-.04.03-.05.04-.02.06-.02.05-.04.03-.13.07-.1.1-.12.08q-.05.04-.12.06l-.14.06-.13.08-.13.08q-.06.04-.13.05l-.05.03-.03.04-.03.04-.03.04-.06.04-.05.01-.05.02-.06.06-.04.04-.05.03-.05.03-.01.05q0 .03-.02.05l-.02.03-.03.04v.07l.02.04.05.04.07.01h.1l.1-.02.07.02q.04 0 .07.02l.07.03.07.01q.06 0 .09-.07l.01.03.01.05.01.05.01.02q.02 0 .03-.04 0-.02.03-.02l.03.01.03.04.04.04.06.01q.05 0 .11.05.07.04.13.1l.14.08q.07.05.13.05.07 0 .11-.03l.09-.08.06-.1.07-.11q.03-.05.08-.08.04-.03.1-.03.1 0 .14.05.03.06.03.15zm-.81-3.12h-.12l.01.01v.03-.04.12q.02.03.07.04 0-.04.02-.07l.02-.06z" style="-inkscape-font-specification:'Special Elite'" aria-label="Table 2" fill="#777"/><path d="M8.24 9.44V59.8zm7.65-.1v50.45zm7.72.1v50.22zm7.67.18v50.04zm8.1-.08V59.8zM.57 17.66h47.04zm-.15 8.03h47.2zm.12 8.01h47.17zm.1 8.04H47.6zm.02 8.82h46.95z" fill="none" stroke="#000" stroke-width=".17"/><path d="m47.61 17.66 22.3-9.04h-.23zm0 24.08 22.3-9.04h-.23zm.1-8.04 22.3-9.03h-.23zm-.08-8 22.3-9.04h-.23zm-.02 24.86 22.3-9.03h-.23z" fill="none" stroke="#000" stroke-width=".15"/><path d="M55.36 6.32v50.3zm7.8-3.22v50.3zm-47.2.04 47.2-.04zM8.14 6.36l47.2-.04z" fill="none" stroke="#000" stroke-width=".17"/><path d="M8.24 9.44 30.54.4h-.23zm7.65-.1L38.2.3h-.23zm7.72.1L45.9.43h-.23zm7.67.18L53.58.6h-.23zm8.1-.08L61.68.51h-.23z" fill="none" stroke="#000" stroke-width=".08"/><path d="M15.98 29.65V25.8h7.5v7.71h-7.5zm31.94-.05v-3.9l3.24-1.3 3.63-1.48.4-.17-.03 3.88-.04 3.88-3.6 1.48-3.6 1.48z" fill="#a00" stroke="#000" stroke-width=".12"/><path d="M23.48 25.8c4.95-2.42 4.71-2.42 4.71-2.42zm0 7.71c4.95-2.42 4.71-2.42 4.71-2.42zm-7.5-7.71c4.95-2.42 4.71-2.42 4.71-2.42zm12.21-2.42v7.71zm-7.5 0h7.5zM8.24 25.67c4.95-2.42 4.7-2.42 4.7-2.42zm.03 7.93c4.95-2.41 4.7-2.41 4.7-2.41zm7.65 8.06c4.95-2.42 4.71-2.42 4.71-2.42zm7.56.1c4.96-2.42 4.71-2.42 4.71-2.42zm7.78-8c4.95-2.42 4.7-2.42 4.7-2.42z" fill="green" stroke="#000" stroke-width=".17"/><path d="M15.77 17.7c5.17-2.52 4.92-2.52 4.92-2.52z" fill="green" stroke="#000" stroke-width=".18"/><path d="M23.63 17.7c4.85-2.36 4.61-2.36 4.61-2.36zm7.51 8.03c4.95-2.41 4.7-2.41 4.7-2.41zm-18.19-2.48v7.9z" fill="green" stroke="#000" stroke-width=".17"/><path d="M20.69 15.18v8.2zm7.51.18v8.02zm7.77 7.96v8.03zM28.2 31.1v8.26z" fill="green" stroke="#000" stroke-width=".18"/><path d="M20.63 33.72v5.52z" fill="green" stroke="#000" stroke-width=".15"/><path d="M12.95 31.15h2.8z" fill="green" stroke="#000" stroke-width=".11"/><path d="M12.95 23.25h7.5zm15.4.07h7.5zm-7.6-7.97h7.5zm-.06 23.99h7.5z" fill="green" stroke="#000" stroke-width=".17"/><path d="M28.2 31.1h7.78z" fill="green" stroke="#000" stroke-width=".18"/><path d="M20.69 23.38c4.95-2.41 4.71-2.41 4.71-2.41zm7.5 0c4.95-2.41 4.71-2.41 4.71-2.41zm.01 7.72c4.8-2.3 4.56-2.3 4.56-2.3zm-2.8-10.13h7.5z" fill="green" stroke="#000" stroke-width=".17"/><path d="M32.9 20.97v8.02z" fill="green" stroke="#000" stroke-width=".18"/><path d="M8.34 29.63V25.8h4.5v2.67l-.01 2.68-1.54.79-2.25 1.15-.7.36z" fill="green" stroke="#000" stroke-width=".03"/><path d="M8.52 33.6a99.71 99.71 0 0 1 1.2-.6c1.6-.78 3.27-1.66 3.31-1.73.04-.06.09-.06 1.38-.06 1.32 0 1.34 0 1.34-.07 0-.06-.02-.06-1.35-.06h-1.34V25.8h2.75v7.8H8.52z" fill="green" stroke="#000" stroke-width=".03"/><path d="M9.65 25.09c.76-.37 2.26-1.14 3.17-1.62.01 0 .03.47.03 1.05v1.06h-4.2l1-.49zm3.4-.61v-1.11h2.76v2.21h-2.75zm2.94 0v-1.11h2.24l2.24.01-2.16 1.1c-1.39.72-2.17 1.1-2.23 1.1H16z" fill="#0f0" stroke="#000" stroke-width=".03"/><path d="M23.71 29.52V25.8h4.37v5.24l-1.92.98a204.99 204.99 0 0 1-2.18 1.12l-.27.12zm.03 4.01 1.3-.67a123.08 123.08 0 0 0 3.02-1.52s.02.5.02 1.11v1.12h-2.2a21 21 0 0 1-2.14-.04zm4.55-1.14V31.2h2.87v2.37h-2.87zm0-4.03V25.8h2.87v3.69l-1.43.72-1.44.72zm.43 2.6 1.11-.54 1.21-.59.12-.06v1.2h-2.43z" fill="green" stroke="#000" stroke-width=".04"/><path d="M31.37 30.32v-.66l.54-.26c.56-.28.92-.5.92-.55a.27.27 0 0 0-.04-.1c-.03-.05-.12-.02-.5.17-.26.13-.57.29-.7.34l-.22.1V25.8h4.5v5.18h-4.5zm0 2.07V31.2h2.25c1.23 0 2.24.02 2.24.04s-.97.54-2.17 1.15l-2.24 1.15c-.07.03-.08-.04-.08-1.15zm1.34-6.8zm-.94-.05L32.9 25a97.74 97.74 0 0 0 2.01-1.02l.93-.5c.02 0 .03.46.03 1.04v1.04h-4.09zm-.4-1.09v-1.02h4l-1.6.83-2 1.02-.4.2zm-3.08.05v-1.07h2.87v2.14h-2.87zm-3.83.94c.83-.4 2.12-1.05 2.82-1.42l.8-.41v1.96H24.2zm-.75-2.79v-.63l.57-.3.88-.47.32-.2h2.6v2.24H23.7zm4.58-.52v-1.07h2.87v.69l-1.23.63-1.43.72-.2.1z" fill="#0f0" stroke="#000" stroke-width=".04"/><path d="M31.36 21.36v-.3h1.15l-.37.2-.57.29-.2.1z" fill="#0f0" stroke="#000" stroke-width=".01"/><path d="M21.51 23.1a85.07 85.07 0 0 1 1.98-.97c.01 0 .02.26.02.58v.59h-2.38z" fill="#0f0" stroke="#000" stroke-width=".03"/><path d="m17.07 25.4 1.99-1 1.71-.88h2.72v2.02H16.8zm6.66-.87v-1h1.94c1.07 0 1.94 0 1.92.02l-1.94 1-1.92.99zm-3.27-1.3c0-.07-.29-.09-2.24-.09h-2.24v-5.37h4.6v2.78c0 1.81-.02 2.78-.06 2.78-.03 0-.06-.04-.06-.1zm.36-2.77v-2.69h2.67v4.06l-1.3.66-1.33.65c-.02 0-.04-1.2-.04-2.68zm-4.78 4.01V23.4h4.27l-.73.39c-.87.46-3.45 1.75-3.5 1.75-.02 0-.04-.48-.04-1.07zm5.4-1a30.63 30.63 0 0 1 1.42 0c.4.02.08.03-.7.03-.79 0-1.1-.01-.72-.02z" fill="green" stroke="#000" stroke-width=".06"/><path d="m22.13 23.27-.88-.01.55-.28a40.6 40.6 0 0 1 1.67-.81l.02.56v.55h-.24a431.06 431.06 0 0 0-1.12-.02z" fill="green" stroke="#000" stroke-width=".01"/><path d="M16 37.66v-3.79h4.53v5.27l-.8.42c-.43.23-1.45.75-2.26 1.15l-1.47.74zm4.7-1.1v-2.69h2.83v5.36H20.7zm-3.98 4.86 2.16-1.09 1.72-.87 1.46.02 1.46.03v2.14h-3.61l-3.62-.01z" fill="green" stroke="#000" stroke-width=".09"/><path d="M23.7 36.55v-2.68h4.36v5.36H23.7zm0 3.94v-.99h1.9l1.9.01-1.84.98a46 46 0 0 1-1.9.97c-.04 0-.06-.43-.06-.97zm0-20.74v-1.97h4.36v3.04H25.4l-.85.45-.85.45zm-2.91-3.26v-1.03h2.73v2.05H20.8z" fill="#0f0" stroke="#000" stroke-width=".09"/><path d="M16.61 17.42c1.46-.72 2.32-1.16 3.08-1.56l.9-.47v2.15h-4.22zm7.1-.92v-1.04h4.09l-.59.3-3.5 1.78V16.5zm.8.9 1.33-.67a90.02 90.02 0 0 0 2.23-1.14c.01 0 .02.43.02.97v.98h-3.86z" fill="#0f0" stroke="#000" stroke-width=".03"/><path d="M33.28 28.1c-.46.08 0-.02-.21.06l-.11.02c-.03.01-.03.05-.06.06h-.05v.03h-.06l-.05.03c-.05.03 0 .02-.06.05-.01.02-.03.02-.05.03l-.08.09-.06.03-.02.03-.06.05-.03.03-.02.03v.03c-.06.06 0-.1-.06.03v.03h-.03v.11c-.03.07-.03-.03-.05.08v.12l-.03.03v.03h-.02.13c.25-.03.1 0 .22-.06l.08-.03.11-.06c.13-.04.04.05.14-.03l.02-.02h.03-.24c.02-.05.06-.07.1-.1" fill="#0f0" stroke="#000" stroke-width=".17"/><path fill="#0f0" stroke="#000" stroke-width=".17" stroke-dasharray="0 1.9" d="M31.46 27.64h2.53v2.65h-2.53z"/><path d="m28.8 23.2.61-.3a205.9 205.9 0 0 0 1.74-.87l.04-.02v1.2h-1.22c-1.03 0-1.2 0-1.18-.01zm2.57-.63v-.65l.56-.3a33.07 33.07 0 0 0 .88-.47v2.07h-1.44z" fill="#0f0" stroke="#000" stroke-width=".01" stroke-dasharray="0 .15"/><path d="m16.98 25.5 1.9-.97 1.88-.96h2.7v1.93h-6.48zm6.79-.98v-.95h3.71l-.78.4a252.97 252.97 0 0 1-2.92 1.5s-.02-.43-.02-.95z" fill="#a00" stroke="#000" stroke-width=".02" stroke-dasharray="0 .22"/><path d="M23.78 29.5v-3.65h4.25v5.17l-2.09 1.06a50.9 50.9 0 0 1-2.12 1.07c-.02 0-.04-1.64-.04-3.65zm1.5-4.41 1.78-.9.97-.5v1.82h-3.58z" fill="#a00" stroke="#000" stroke-width=".06" stroke-dasharray="0 .61"/><path d="M55.22 6.91c-1.81.7-3.6 1.44-5.4 2.17l-1.7.68c-.03.18 0 .39-.01.58 0 2.25-.01 4.5.01 6.75.02.08-.02.19.04.25.2-.04.38-.14.57-.21l6.53-2.67c.04-.24.02-.49.03-.73v-6.8c0-.03-.05-.02-.07-.02zm7.81-3.17c-2.54 1-5.06 2.04-7.59 3.06-.04.18 0 .38-.02.57v6.97c.07.06.17-.04.25-.05 2.47-1 4.94-2.02 7.4-3.03.05-.18.01-.38.03-.57l-.01-6.7c-.02-.07.02-.2-.05-.25zm6.43-2.6c-1.82.7-3.62 1.45-5.43 2.18-.26.12-.54.2-.79.33l-.01 4.3v3.18c.05.06.17-.02.24-.04 2.02-.8 4.03-1.64 6.04-2.46.04-.18 0-.38.02-.57v-6.9c0-.03-.05-.02-.07-.02zm0 7.74c-2.07.82-4.14 1.67-6.21 2.5-.05.12 0 .27-.02.4v7.39c.07.07.18-.03.27-.05 2-.8 4.01-1.63 6.02-2.45.04-.18 0-.39.02-.57l-.01-6.95c-.02-.09.02-.2-.04-.27h-.03zm-6.45 2.62c-1.14.44-2.28.9-3.41 1.36l-4.15 1.68c-.04.18 0 .39-.02.58v7.24c.06.07.17-.02.24-.04 2.48-.99 4.94-2 7.4-3.02.05-.18.01-.38.03-.57v-7.2c-.01-.04-.06-.02-.09-.03zm-7.8 3.15c-2.15.85-4.29 1.73-6.43 2.6-.22.09-.46.16-.66.27-.02 1.42 0 2.84 0 4.25v3.6c.05.06.16-.03.24-.05l6.92-2.82c.04-.18 0-.39.01-.57v-7.26c0-.04-.05-.02-.08-.02zm7.81 4.88c-2.53 1-5.05 2.04-7.58 3.06-.04.18 0 .38-.01.57v7.24c.07.08.18-.03.27-.04l7.38-3c.04-.19 0-.4.02-.58v-7.23c-.01-.04-.06-.02-.08-.02zm6.44-2.6a561.6 561.6 0 0 0-6.22 2.5c-.04.18 0 .38-.01.57v7.21c.07.08.2-.03.28-.05 2-.8 4-1.63 6-2.44.04-.18 0-.38.02-.57v-7.2c0-.03-.04-.02-.07-.02zm0 8.04c-2.07.81-4.13 1.66-6.2 2.5-.05.09 0 .22-.02.32-.02 2.3-.02 4.6-.01 6.89.01.18-.02.37.03.55.09.03.18-.06.26-.08 2-.8 4-1.62 6-2.44.04-.18 0-.38.01-.57v-6.91c-.02-.08.02-.2-.05-.26h-.02zm-6.43 2.6c-2.54 1-5.05 2.04-7.58 3.06-.04.18 0 .38-.02.57v7.21c.06.07.17-.03.24-.04l7.4-3.02c.04-.18 0-.39.02-.57 0-2.32.01-4.63 0-6.95-.02-.08.02-.2-.05-.26h-.01zm-7.83 3.17c-2.23.88-4.44 1.8-6.67 2.7-.14.06-.3.1-.42.18v7.77c.08.08.2-.03.29-.05 2.3-.91 4.58-1.86 6.87-2.8.04-.18 0-.38.01-.57l.01-7.2c0-.05-.05-.03-.08-.03zm.03 7.99c-2.37.94-4.73 1.9-7.1 2.86-.03.18 0 .38-.01.57l-.01 8.07c.06.07.17-.03.24-.04l6.93-2.83c.04-.18 0-.38.01-.57V39c-.02-.1.02-.2-.04-.28h-.02zm7.79-3.15c-2.19.85-4.36 1.75-6.54 2.63-.34.14-.7.27-1.03.43-.04.55-.02 1.11-.02 1.67v6.91c.06.08.18-.03.26-.04 2.47-.99 4.93-2 7.39-3.01.04-.18 0-.38.02-.57v-8c-.01-.04-.05-.02-.08-.02zm6.42-2.6c-1.55.6-3.08 1.23-4.62 1.85l-1.58.64c-.04.18 0 .38-.01.57v8c.07.07.18-.04.27-.05 2-.8 4.01-1.64 6.02-2.46.04-.18 0-.38.02-.57V33c-.01-.05-.07-.02-.1-.02zm.02 8.82c-1.24.47-2.46.98-3.7 1.47l-2.5 1.02c-.05.18-.01.38-.03.57v7.75c.02.1-.01.21.04.3.13 0 .25-.1.38-.13l5.86-2.4c.04-.18 0-.38.02-.57v-8c0-.03-.04-.02-.07-.02zm-6.44 2.6c-2.48.98-4.94 1.99-7.41 2.98-.14.03-.23.11-.19.26l.01 8.15c.02.1-.02.22.04.31.15-.02.3-.11.45-.16l7.15-2.92c.04-.18 0-.38.02-.57v-8.03c0-.05-.05-.02-.07-.02zM64.04.9 60.8.93 55.9 2.9c-.06.01-.08.13 0 .1h6.4l4.75-1.95c.07-.05.17-.06.22-.13 0-.08-.16-.01-.23-.03h-3zm-5.6 2.3h-3.28l-7.29 2.95c-.05.12.07.1.15.1l6.42-.03c2.3-.94 4.6-1.87 6.9-2.83.12-.06.26-.1.37-.17-.02-.07-.16-.01-.23-.03h-3.04zm-7.51 0h-3.68l-7.28 2.95c-.05.12.07.1.15.1h7.21l6.91-2.84c.12-.06.27-.1.38-.18-.02-.08-.17-.01-.23-.03h-3.46zm5.6-2.29h-3.65l-4.97 2.02c-.05.12.07.1.15.1L55.24 3l4.72-1.94c.07-.04.16-.06.21-.12 0-.08-.16-.02-.22-.04h-3.42zM48.5.92l-3.75.01-4.94 2c-.05.12.07.1.15.1h7.32l4.76-1.96c.07-.04.17-.05.22-.12 0-.09-.16-.02-.23-.04l-3.52.01zM42.9 3.2l-3.78.01-7.3 2.96c-.04.12.07.09.15.09l7.45-.02 6.97-2.86c.1-.05.21-.07.3-.14 0-.08-.16-.02-.22-.04H42.9zm-8.1.02h-3.7l-7.19 2.92c-.07.18.14.1.25.12l7.15-.02c2.35-.96 4.71-1.92 7.07-2.9.05 0 .13-.1.07-.12h-3.67zm5.63-2.3h-3.65l-4.9 1.99c-.07.17.1.13.22.13l7.1-.01c1.57-.65 3.15-1.28 4.71-1.95.06-.04.2-.05.17-.16h-3.65zM32.7.94l-3.4.01-4.84 1.96c-.07.17.1.12.21.13h6.5c1.57-.65 3.15-1.28 4.72-1.95.07-.04.2-.06.18-.17L32.7.94zM20.1 4.68l-3.6 1.46c-.06.17.1.13.22.13l6.61-.01c2.27-.94 4.56-1.86 6.82-2.82.1-.05.24-.08.32-.17 0-.11-.23-.02-.32-.05h-6.44l-3.6 1.46zm.03-1.46-2.93.01-7.17 2.91c-.08.17.1.12.2.13h5.65c2.28-.95 4.58-1.87 6.86-2.83.1-.05.24-.08.31-.17.01-.12-.22-.03-.31-.05h-2.61zM25.74.95h-2.9L18.01 2.9c-.07.17.1.13.21.13h5.54c1.57-.65 3.14-1.28 4.7-1.94.06-.05.2-.05.18-.16h-2.9zm-13.52 5.5H9.25L3.26 8.88c-.07.17.1.13.21.13h5.7c1.92-.8 3.85-1.57 5.77-2.37.08-.05.25-.06.24-.19h-2.96zm6.93 0h-3.42L9.74 8.88c-.07.17.1.13.21.13h6.64c1.91-.8 3.83-1.56 5.74-2.37.08-.05.25-.06.24-.19h-3.42zm7.75-.02-3.75.02-6.01 2.43c-.08.17.1.13.2.13h7.22c1.94-.8 3.9-1.58 5.83-2.4.08-.04.19-.06.25-.14-.02-.1-.23-.02-.33-.05l-3.42.01zm8.04 0h-3.77l-6.03 2.45c-.07.17.1.13.21.13h7.3c1.94-.8 3.88-1.57 5.8-2.39.09-.05.26-.06.25-.2l-3.76.01zm8.02 0h-3.68l-6.05 2.45c-.08.17.1.13.2.13h7.14c1.94-.8 3.9-1.58 5.84-2.4.07-.05.18-.07.23-.13-.02-.1-.23-.02-.32-.05h-3.36zm7.52-.02H47.2l-6.05 2.47c-.07.17.1.13.2.13h6.28c1.96-.8 3.93-1.6 5.88-2.42.08-.05.19-.07.24-.13-.01-.1-.23-.02-.32-.05h-2.95zm4.56 41.33c-2.31.84-4.6 1.73-6.85 2.73-.2.37-.03.96-.08 1.42v7.06c.85-.1 1.62-.58 2.43-.85 1.54-.64 3.13-1.24 4.64-1.92.15-2.4.04-4.82.08-7.23-.1-.32.23-1.28-.22-1.2z" opacity=".98" fill="#fff" paint-order="stroke fill markers"/></svg>