<svg xmlns="http://www.w3.org/2000/svg" viewBox="0 0 427 115">
  <g>
    <path d="m49.67 1.44 9.4 37.3-9.4 16.3-9.3-16.3zm48 28.1-27.5 26.7h-18.8l9.4-16.2z"/>
	<path d="m97.67 85.54-36.9-10.5-9.4-16.3h18.8zm61.2-84.1 9.5 37.3-9.4 16.3-9.3-16.3zm48 28.1-27.5 26.7h-18.8l9.4-16.2z"/>
	<path d="m377.37 1.44 9.3 37.2-9.4 16.3-9.4-16.3z"/>
	<path d="m158.87 113.54-9.3-37.2 9.3-16.3 9.4 16.3z"/>
	<path d="m329.37 85.54 27.3-26.8h18.8l-9.4 16.3z"/>
	<path d="m220.07 85.54 27.6-26.8h18.7l-9.4 16.3z"/>
	<path d="m425.37 85.54-37-10.5-9.4-16.3h18.8zm-157.3-84.1 9.4 37.2-9.4 16.3-9.3-16.3zm48 28.1-27.5 26.7h-18.8l9.4-16.2z"/>
  </g>
  <g fill="none" stroke="#000" stroke-dasharray="3.0 2" stroke-width="1.5" >
    <path d="m1.67 29.54 37 10.5 9.4 16.2h-18.8zm48 84-9.3-37.2 9.3-16.3 9.4 16.3zm-48-28 27.7-26.8h18.8l-9.5 16.3z"/>
    <path d="m110.87 29.54 37 10.5 9.3 16.2h-18.7z"/>
    <path d="m110.87 85.54 27.6-26.8h18.7l-9.4 16.3z"/>
    <path d="m206.87 85.54-36.9-10.5-9.4-16.3h18.8z"/>
    <path d="m425.37 29.54-27.6 26.7h-18.8l9.4-16.2z"/>
    <path d="m329.37 29.54 36.8 10.5 9.4 16.2h-18.8zm48 84-9.5-37.2 9.4-16.3 9.4 16.3z"/>
    <path d="m220.07 29.54 37 10.5 9.3 16.2h-18.7zm48 84-9.3-37.2 9.3-16.3 9.4 16.3z"/>
    <path d="m316.07 85.54-36.9-10.5-9.4-16.3h18.8z"/>
  </g>
</svg>
